# xmcd CD database file
#
# Track frame offsets:
#	150
#	14124
#	32100
#	40141
#	59754
#	82252
#	92586
#	108507
#	127085
#	139017
#	153784
#	173958
#	182544
#	209250
#	232999
#	253800
#	271335
#	295139
#	306432
#	326502
#	340314
#
# Disc length: 4657 seconds
#
# Revision: 0
# Processed by: cddbd v1.5.2PL0 Copyright (c) Steve Scherf et al.
# Submitted via: CDex 1.70beta2
#
DISCID=3b122f15
DTITLE=Floyd Lee Band - The Amogla Sessions
DYEAR=1900
DGENRE=Blues
TTITLE0=Empty Well
TTITLE1=Red Sun
TTITLE2=Bird with a broken wing
TTITLE3=Sometimes I love you
TTITLE4=Mean Blues
TTITLE5=Ridin´ on empty
TTITLE6=How low can you go
TTITLE7=Mean ol´ Frisco
TTITLE8=Got love now waitin´
TTITLE9=Lights out
TTITLE10=It hurts me too
TTITLE11=The counting song
TTITLE12=Down in Lamar
TTITLE13=Don´t you know
TTITLE14=Tie a string
TTITLE15=Full moon lightnin´
TTITLE16=Devil at your doorstep
TTITLE17=Blues is a beautiful woman
TTITLE18=Think I got something on my mind
TTITLE19=Can´t stand to see you go
TTITLE20=Shake your moneymaker
EXTD=
EXTT0=
EXTT1=
EXTT2=
EXTT3=
EXTT4=
EXTT5=
EXTT6=
EXTT7=
EXTT8=
EXTT9=
EXTT10=
EXTT11=
EXTT12=
EXTT13=
EXTT14=
EXTT15=
EXTT16=
EXTT17=
EXTT18=
EXTT19=
EXTT20=
PLAYORDER=
